<?xml version="1.0" encoding="UTF-8" standalone="no"?>
<svg width="113px" height="134px" viewBox="0 0 113 134" version="1.1" xmlns="http://www.w3.org/2000/svg" xmlns:xlink="http://www.w3.org/1999/xlink">
    <!-- Generator: Sketch 39.1 (31720) - http://www.bohemiancoding.com/sketch -->
    <title>z</title>
    <desc>Created with Sketch.</desc>
    <defs></defs>
    <g id="Page-1" stroke="none" stroke-width="1" fill="none" fill-rule="evenodd">
        <g id="z" fill="#FFFFFF">
            <g id="Group">
                <path d="M25.984,111.955 C23.506,111.955 23.216,115.1 23.216,117.467 C23.216,121.209 24.145,123.028 26.036,123.028 C27.878,123.028 28.777,121.222 28.777,117.515 C28.778,113.825 27.839,111.955 25.984,111.955 L25.984,111.955 L25.984,111.955 Z" id="Shape"></path>
                <path d="M39.3,112.137 L37.792,112.137 L37.792,116.825 L39.478,116.825 C41.617,116.825 42.065,115.556 42.065,114.49 C42.064,112.908 41.156,112.137 39.3,112.137 L39.3,112.137 L39.3,112.137 Z" id="Shape"></path>
                <path d="M86.383,112.137 L84.87,112.137 L84.87,116.825 L86.557,116.825 C88.697,116.825 89.145,115.556 89.145,114.49 C89.145,112.885 88.264,112.137 86.383,112.137 L86.383,112.137 L86.383,112.137 Z" id="Shape"></path>
                <path d="M108.394,0.73 L4.342,0.73 C1.955,0.73 0.001,2.683 0.001,5.072 L0.001,129.24 C0.001,131.628 1.955,133.581 4.342,133.581 L108.394,133.581 C110.781,133.581 112.734,131.628 112.734,129.24 L112.734,5.072 C112.733,2.684 110.78,0.73 108.394,0.73 L108.394,0.73 L108.394,0.73 Z M11.029,125.467 L7.138,125.467 L7.138,109.514 L11.104,109.514 C15.596,109.514 17.877,112.193 17.877,117.467 C17.878,124.078 14.153,125.467 11.029,125.467 L11.029,125.467 L11.029,125.467 Z M25.984,125.719 C22.256,125.719 20.117,122.729 20.117,117.515 C20.117,112.347 22.33,109.264 26.037,109.264 C29.694,109.264 31.879,112.328 31.879,117.467 C31.879,122.635 29.68,125.719 25.984,125.719 L25.984,125.719 L25.984,125.719 Z M45.088,125.467 L41.801,125.467 L39,119.333 L37.792,119.333 L37.792,125.467 L34.767,125.467 L34.767,109.514 L39.454,109.514 C43.039,109.514 45.092,111.312 45.092,114.446 C45.092,116.903 43.555,118.115 42.272,118.7 L42.027,118.804 L45.088,125.467 L45.088,125.467 L45.088,125.467 Z M58.326,125.467 L55.394,125.467 L52.105,118.325 C51.899,117.881 51.467,116.918 51.097,115.98 L50.595,114.931 L50.59,116.085 C50.603,116.984 50.615,118.037 50.615,118.757 L50.615,125.466 L47.868,125.466 L47.868,109.513 L50.953,109.513 L54.093,116.538 C54.414,117.247 54.82,118.184 55.142,118.985 L55.642,120.143 L55.654,118.871 L55.642,118.573 C55.618,117.711 55.582,116.757 55.582,116.106 L55.582,109.512 L58.325,109.512 L58.325,125.467 L58.326,125.467 L58.326,125.467 Z M66.435,125.467 L61.855,125.467 L61.855,109.514 L66.62,109.514 C69.861,109.514 71.865,111.129 71.865,113.733 C71.865,114.981 71.198,116.072 70.072,116.646 L69.576,116.897 L70.081,117.125 C71.514,117.767 72.31,118.987 72.31,120.554 C72.309,123.767 70.273,125.467 66.435,125.467 L66.435,125.467 L66.435,125.467 Z M78.187,125.467 L75.168,125.467 L75.168,109.514 L78.187,109.514 L78.187,125.467 L78.187,125.467 L78.187,125.467 Z M92.17,125.467 L88.885,125.467 L86.081,119.333 L84.87,119.333 L84.87,125.467 L81.846,125.467 L81.846,109.514 L86.535,109.514 C90.115,109.514 92.17,111.312 92.17,114.446 C92.17,116.903 90.638,118.115 89.35,118.7 L89.11,118.804 L92.17,125.467 L92.17,125.467 L92.17,125.467 Z M105.406,125.467 L102.476,125.467 L99.187,118.325 C98.98,117.881 98.55,116.918 98.173,115.983 L97.649,114.802 L97.666,116.085 C97.684,116.978 97.695,118.029 97.695,118.757 L97.695,125.466 L94.956,125.466 L94.956,109.513 L98.035,109.513 L101.174,116.538 C101.494,117.247 101.903,118.189 102.227,118.985 L102.745,120.052 L102.739,118.869 L102.733,118.713 C102.703,117.811 102.666,116.789 102.666,116.106 L102.666,109.512 L105.407,109.512 L105.407,125.467 L105.406,125.467 L105.406,125.467 Z M105.536,98.105 C105.536,100.492 103.583,102.445 101.196,102.445 L11.359,102.445 C8.973,102.445 7.02,100.492 7.02,98.105 L7.02,12.003 C7.02,9.616 8.973,7.663 11.359,7.663 L101.196,7.663 C103.583,7.663 105.536,9.616 105.536,12.003 L105.536,98.105 L105.536,98.105 L105.536,98.105 Z" id="Shape"></path>
                <path d="M66.513,118.09 L64.802,118.09 L64.802,123.004 L66.619,123.004 C68.35,123.004 69.308,122.159 69.308,120.629 C69.309,118.895 68.419,118.09 66.513,118.09 L66.513,118.09 L66.513,118.09 Z" id="Shape"></path>
                <path d="M68.872,113.848 C68.872,112.588 68.145,111.977 66.644,111.977 L64.801,111.977 L64.801,115.694 L66.718,115.694 C68.105,115.693 68.872,115.038 68.872,113.848 L68.872,113.848 L68.872,113.848 Z" id="Shape"></path>
                <path d="M11.104,112.137 L10.165,112.137 L10.165,122.844 L11.104,122.844 C13.641,122.844 14.772,121.201 14.772,117.515 C14.772,113.848 13.607,112.137 11.104,112.137 L11.104,112.137 L11.104,112.137 Z" id="Shape"></path>
                <polygon id="Shape" points="24.925 79.357 18.559 79.357 18.559 68.549 13.586 68.549 13.586 95.099 18.559 95.099 18.559 83.889 24.925 83.889 24.925 95.099 29.898 95.099 29.898 68.549 24.925 68.549"></polygon>
                <polygon id="Shape" points="33.325 73.004 38.458 73.004 38.458 95.099 43.428 95.099 43.428 73.004 48.559 73.004 48.559 68.549 33.325 68.549"></polygon>
                <polygon id="Shape" points="56.966 68.549 51.989 68.549 51.989 95.099 65.678 95.099 65.678 90.57 56.966 90.57"></polygon>
            </g>
        </g>
    </g>
</svg>